<?xml version="1.0" encoding="UTF-8" standalone="no"?>
<svg width="4156.5" height="2302" viewBox="0 0 4156.5 2302" xmlns="http://www.w3.org/2000/svg">
    <defs>
        <marker id="startarrow" markerWidth="10" markerHeight="7"
                refX="0" refY="3.5" orient="auto">
            <polygon points="10 0, 10 7, 0 3.5"/>
        </marker>
        <marker id="endarrow" markerWidth="10" markerHeight="7"
                refX="10" refY="3.5" orient="auto">
            <polygon points="0 0, 10 3.5, 0 7"/>
        </marker>

    </defs>
    <style>
        .a14 { font-size: 14px; font-family: Times, serif; }
    </style>
    <ellipse cx="2274.5" cy="47" rx="101" ry="17" fill="#5e6df7ff"
             stroke-width="1" stroke="#000000ff"/>
    <text dominant-baseline="middle" text-anchor="middle"
          x="2274.5" y="33" class="a14">
        <tspan x="2274.5" dy="1.0em">Task: _source</tspan>
    </text>
    <ellipse cx="1211" cy="1087" rx="101" ry="17" fill="#5e6df7ff"
             stroke-width="1" stroke="#000000ff"/>
    <text dominant-baseline="middle" text-anchor="middle"
          x="1211" y="1073" class="a14">
        <tspan x="1211" dy="1.0em">Task: tonemap</tspan>
    </text>
    <ellipse cx="2537.5" cy="307" rx="101" ry="17" fill="#5e6df7ff"
             stroke-width="1" stroke="#000000ff"/>
    <text dominant-baseline="middle" text-anchor="middle"
          x="2537.5" y="293" class="a14">
        <tspan x="2537.5" dy="1.0em">Task: terrain</tspan>
    </text>
    <ellipse cx="399" cy="1347" rx="129" ry="17" fill="#5e6df7ff"
             stroke-width="1" stroke="#000000ff"/>
    <text dominant-baseline="middle" text-anchor="middle"
          x="399" y="1333" class="a14">
        <tspan x="399" dy="1.0em">Task: egui_render</tspan>
    </text>
    <ellipse cx="399" cy="1607" rx="101" ry="17" fill="#5e6df7ff"
             stroke-width="1" stroke="#000000ff"/>
    <text dominant-baseline="middle" text-anchor="middle"
          x="399" y="1593" class="a14">
        <tspan x="399" dy="1.0em">Task: present</tspan>
    </text>
    <ellipse cx="2030" cy="827" rx="136" ry="17" fill="#5e6df7ff"
             stroke-width="1" stroke="#000000ff"/>
    <text dominant-baseline="middle" text-anchor="middle"
          x="2030" y="813" class="a14">
        <tspan x="2030" dy="1.0em">Task: msaa_resolve</tspan>
    </text>
    <ellipse cx="2030" cy="567" rx="122" ry="17" fill="#5e6df7ff"
             stroke-width="1" stroke="#000000ff"/>
    <text dominant-baseline="middle" text-anchor="middle"
          x="2030" y="553" class="a14">
        <tspan x="2030" dy="1.0em">Task: atmosphere</tspan>
    </text>
    <rect x="842" y="938" width="738" height="38" fill="#f75e70ff"
          stroke-width="1" stroke="#000000ff" rx="0"/>
    <text dominant-baseline="middle" text-anchor="middle"
          x="1211" y="936" class="a14">
        <tspan x="1211" dy="1.0em">tonemap_output( =&gt; COLOR_ATTACHMENT_WRITE)</tspan>
        <tspan x="1211" dy="1.0em">(COLOR_ATTACHMENT_OUTPUT =&gt; COLOR_ATTACHMENT_OUTPUT)</tspan>
    </text>
    <rect x="2168.5" y="158" width="738" height="38" fill="#f75e70ff"
          stroke-width="1" stroke="#000000ff" rx="0"/>
    <text dominant-baseline="middle" text-anchor="middle"
          x="2537.5" y="156" class="a14">
        <tspan x="2537.5" dy="1.0em">scene_output( =&gt; COLOR_ATTACHMENT_WRITE)</tspan>
        <tspan x="2537.5" dy="1.0em">(COLOR_ATTACHMENT_OUTPUT =&gt; COLOR_ATTACHMENT_OUTPUT)</tspan>
    </text>
    <rect x="3064.5" y="158" width="640" height="38" fill="#f75e70ff"
          stroke-width="1" stroke="#000000ff" rx="0"/>
    <text dominant-baseline="middle" text-anchor="middle"
          x="3384.5" y="156" class="a14">
        <tspan x="3384.5" dy="1.0em">depth( =&gt; DEPTH_STENCIL_ATTACHMENT_WRITE)</tspan>
        <tspan x="3384.5" dy="1.0em">(LATE_FRAGMENT_TESTS =&gt; EARLY_FRAGMENT_TESTS)</tspan>
    </text>
    <rect x="30" y="1198" width="738" height="38" fill="#f75e70ff"
          stroke-width="1" stroke="#000000ff" rx="0"/>
    <text dominant-baseline="middle" text-anchor="middle"
          x="399" y="1196" class="a14">
        <tspan x="399" dy="1.0em">swapchain( =&gt; COLOR_ATTACHMENT_WRITE)</tspan>
        <tspan x="399" dy="1.0em">(COLOR_ATTACHMENT_OUTPUT =&gt; COLOR_ATTACHMENT_OUTPUT)</tspan>
    </text>
    <rect x="3525.5" y="678" width="626" height="38" fill="#f75e70ff"
          stroke-width="1" stroke="#000000ff" rx="0"/>
    <text dominant-baseline="middle" text-anchor="middle"
          x="3838.5" y="676" class="a14">
        <tspan x="3838.5" dy="1.0em">resolved_output( =&gt; COLOR_ATTACHMENT_WRITE)</tspan>
        <tspan x="3838.5" dy="1.0em">(FRAGMENT_SHADER =&gt; COLOR_ATTACHMENT_OUTPUT)</tspan>
    </text>
    <rect x="828" y="1198" width="766" height="38" fill="#f75e70ff"
          stroke-width="1" stroke="#000000ff" rx="0"/>
    <text dominant-baseline="middle" text-anchor="middle"
          x="1211" y="1196" class="a14">
        <tspan x="1211" dy="1.0em">tonemap_output+(COLOR_ATTACHMENT_WRITE =&gt; SHADER_READ)</tspan>
        <tspan x="1211" dy="1.0em">(COLOR_ATTACHMENT_OUTPUT =&gt; FRAGMENT_SHADER)</tspan>
    </text>
    <rect x="2599" y="418" width="892" height="38" fill="#f75e70ff"
          stroke-width="1" stroke="#000000ff" rx="0"/>
    <text dominant-baseline="middle" text-anchor="middle"
          x="3045" y="416" class="a14">
        <tspan x="3045" dy="1.0em">scene_output+(COLOR_ATTACHMENT_WRITE =&gt; COLOR_ATTACHMENT_WRITE)</tspan>
        <tspan x="3045" dy="1.0em">(COLOR_ATTACHMENT_OUTPUT =&gt; COLOR_ATTACHMENT_OUTPUT)</tspan>
    </text>
    <rect x="1521" y="418" width="1018" height="38" fill="#f75e70ff"
          stroke-width="1" stroke="#000000ff" rx="0"/>
    <text dominant-baseline="middle" text-anchor="middle"
          x="2030" y="416" class="a14">
        <tspan x="2030" dy="1.0em">depth+(DEPTH_STENCIL_ATTACHMENT_WRITE =&gt; DEPTH_STENCIL_ATTACHMENT_WRITE)</tspan>
        <tspan x="2030" dy="1.0em">(LATE_FRAGMENT_TESTS =&gt; EARLY_FRAGMENT_TESTS)</tspan>
    </text>
    <rect x="93" y="1458" width="612" height="38" fill="#f75e70ff"
          stroke-width="1" stroke="#000000ff" rx="0"/>
    <text dominant-baseline="middle" text-anchor="middle"
          x="399" y="1456" class="a14">
        <tspan x="399" dy="1.0em">swapchain+(COLOR_ATTACHMENT_WRITE =&gt; )</tspan>
        <tspan x="399" dy="1.0em">(COLOR_ATTACHMENT_OUTPUT =&gt; BOTTOM_OF_PIPE)</tspan>
    </text>
    <rect x="1640" y="938" width="780" height="38" fill="#f75e70ff"
          stroke-width="1" stroke="#000000ff" rx="0"/>
    <text dominant-baseline="middle" text-anchor="middle"
          x="2030" y="936" class="a14">
        <tspan x="2030" dy="1.0em">resolved_output+(COLOR_ATTACHMENT_WRITE =&gt; SHADER_READ)</tspan>
        <tspan x="2030" dy="1.0em">(COLOR_ATTACHMENT_OUTPUT =&gt; FRAGMENT_SHADER)</tspan>
    </text>
    <rect x="1577" y="678" width="906" height="38" fill="#f75e70ff"
          stroke-width="1" stroke="#000000ff" rx="0"/>
    <text dominant-baseline="middle" text-anchor="middle"
          x="2030" y="676" class="a14">
        <tspan x="2030" dy="1.0em">scene_output++(COLOR_ATTACHMENT_WRITE =&gt; COLOR_ATTACHMENT_WRITE)</tspan>
        <tspan x="2030" dy="1.0em">(COLOR_ATTACHMENT_OUTPUT =&gt; COLOR_ATTACHMENT_OUTPUT)</tspan>
    </text>
    <text dominant-baseline="middle" text-anchor="middle"
          x="1108" y="1009" class="a14">
        <tspan x="1108" dy="1.0em">tonemap_output</tspan>
    </text>
    <text dominant-baseline="middle" text-anchor="middle"
          x="2448.5" y="229" class="a14">
        <tspan x="2448.5" dy="1.0em">scene_output</tspan>
    </text>
    <text dominant-baseline="middle" text-anchor="middle"
          x="331" y="1269" class="a14">
        <tspan x="331" dy="1.0em">swapchain</tspan>
    </text>
    <text dominant-baseline="middle" text-anchor="middle"
          x="695" y="1269" class="a14">
        <tspan x="695" dy="1.0em">tonemap_output+</tspan>
    </text>
    <text dominant-baseline="middle" text-anchor="middle"
          x="324" y="1529" class="a14">
        <tspan x="324" dy="1.0em">swapchain+</tspan>
    </text>
    <text dominant-baseline="middle" text-anchor="middle"
          x="2824.25" y="749" class="a14">
        <tspan x="2824.25" dy="1.0em">resolved_output</tspan>
    </text>
    <text dominant-baseline="middle" text-anchor="middle"
          x="1503.5" y="1009" class="a14">
        <tspan x="1503.5" dy="1.0em">resolved_output+</tspan>
    </text>
    <text dominant-baseline="middle" text-anchor="middle"
          x="2441.5" y="489" class="a14">
        <tspan x="2441.5" dy="1.0em">scene_output+</tspan>
    </text>
    <text dominant-baseline="middle" text-anchor="middle"
          x="1927" y="749" class="a14">
        <tspan x="1927" dy="1.0em">scene_output++</tspan>
    </text>
    <text dominant-baseline="middle" text-anchor="middle"
          x="1108" y="877" class="a14">
        <tspan x="1108" dy="1.0em">tonemap_output</tspan>
    </text>
    <text dominant-baseline="middle" text-anchor="middle"
          x="2448.5" y="97" class="a14">
        <tspan x="2448.5" dy="1.0em">scene_output</tspan>
    </text>
    <text dominant-baseline="middle" text-anchor="middle"
          x="2789.5" y="97" class="a14">
        <tspan x="2789.5" dy="1.0em">depth</tspan>
    </text>
    <text dominant-baseline="middle" text-anchor="middle"
          x="2921" y="229" class="a14">
        <tspan x="2921" dy="1.0em">depth</tspan>
    </text>
    <text dominant-baseline="middle" text-anchor="middle"
          x="331" y="1137" class="a14">
        <tspan x="331" dy="1.0em">swapchain</tspan>
    </text>
    <text dominant-baseline="middle" text-anchor="middle"
          x="3728.5" y="617" class="a14">
        <tspan x="3728.5" dy="1.0em">resolved_output</tspan>
    </text>
    <text dominant-baseline="middle" text-anchor="middle"
          x="1101" y="1137" class="a14">
        <tspan x="1101" dy="1.0em">tonemap_output+</tspan>
    </text>
    <text dominant-baseline="middle" text-anchor="middle"
          x="2695.25" y="357" class="a14">
        <tspan x="2695.25" dy="1.0em">scene_output+</tspan>
    </text>
    <text dominant-baseline="middle" text-anchor="middle"
          x="2236.75" y="357" class="a14">
        <tspan x="2236.75" dy="1.0em">depth+</tspan>
    </text>
    <text dominant-baseline="middle" text-anchor="middle"
          x="1983" y="489" class="a14">
        <tspan x="1983" dy="1.0em">depth+</tspan>
    </text>
    <text dominant-baseline="middle" text-anchor="middle"
          x="324" y="1397" class="a14">
        <tspan x="324" dy="1.0em">swapchain+</tspan>
    </text>
    <text dominant-baseline="middle" text-anchor="middle"
          x="1913" y="877" class="a14">
        <tspan x="1913" dy="1.0em">resolved_output+</tspan>
    </text>
    <text dominant-baseline="middle" text-anchor="middle"
          x="1927" y="617" class="a14">
        <tspan x="1927" dy="1.0em">scene_output++</tspan>
    </text>
    <path id="arrow0" d="M 1211 976 C 1211 1006, 1211 993, 1211 1023 S 1211 1040, 1211 1070 " stroke="#000000ff"
          stroke-width="1" marker-end="url(#endarrow)"
          fill="transparent"/>
    <text>
        <textPath href="#arrow0" startOffset="50%" text-anchor="middle" class="a14"></textPath>
    </text>
    <path id="arrow1" d="M 2537.5 196 C 2537.5 226, 2537.5 213, 2537.5 243 S 2537.5 260, 2537.5 290 " stroke="#000000ff"
          stroke-width="1" marker-end="url(#endarrow)"
          fill="transparent"/>
    <text>
        <textPath href="#arrow1" startOffset="50%" text-anchor="middle" class="a14"></textPath>
    </text>
    <path id="arrow2" d="M 399 1236 C 399 1266, 399 1253, 399 1283 S 399 1300, 399 1330 " stroke="#000000ff"
          stroke-width="1" marker-end="url(#endarrow)"
          fill="transparent"/>
    <text>
        <textPath href="#arrow2" startOffset="50%" text-anchor="middle" class="a14"></textPath>
    </text>
    <path id="arrow3"
          d="M 957.75 1236 C 929.0766297383415 1244.8225754651257, 833.9423408867113 1275.339647743699, 805 1283 S 511.37340134364337 1329.2859662906571, 481.7393297050709 1333.957347041565 "
          stroke="#000000ff" stroke-width="1" marker-end="url(#endarrow)"
          fill="transparent"/>
    <text>
        <textPath href="#arrow3" startOffset="50%" text-anchor="middle" class="a14"></textPath>
    </text>
    <path id="arrow4" d="M 399 1496 C 399 1526, 399 1513, 399 1543 S 399 1560, 399 1590 " stroke="#000000ff"
          stroke-width="1" marker-end="url(#endarrow)"
          fill="transparent"/>
    <text>
        <textPath href="#arrow4" startOffset="50%" text-anchor="middle" class="a14"></textPath>
    </text>
    <path id="arrow5"
          d="M 3525.5 710.8134403209629 C 3495.6161816976373 713.4511293988043, 2964.1501688431035 760.5679398222123, 2934.25 763 S 2178.2710737927 816.5058349762425, 2148.345933177013 818.6238432697497 "
          stroke="#000000ff" stroke-width="1" marker-end="url(#endarrow)"
          fill="transparent"/>
    <text>
        <textPath href="#arrow5" startOffset="50%" text-anchor="middle" class="a14"></textPath>
    </text>
    <path id="arrow6"
          d="M 1773.25 976 C 1744.5766297383416 984.8225754651257, 1649.4424237160824 1015.3434952068367, 1620.5 1023 S 1314.6536564688988 1070.80016113795, 1285.0134679779096 1075.43257154924 "
          stroke="#000000ff" stroke-width="1" marker-end="url(#endarrow)"
          fill="transparent"/>
    <text>
        <textPath href="#arrow6" startOffset="50%" text-anchor="middle" class="a14"></textPath>
    </text>
    <path id="arrow7"
          d="M 2740.098484848485 456 C 2710.8745590562644 462.7795399025889, 2566.8801147114896 497.0951630666884, 2537.5 503 S 2150.220320780986 551.8392107783584, 2120.456062502027 555.5927330046704 "
          stroke="#000000ff" stroke-width="1" marker-end="url(#endarrow)"
          fill="transparent"/>
    <text>
        <textPath href="#arrow7" startOffset="50%" text-anchor="middle" class="a14"></textPath>
    </text>
    <path id="arrow8" d="M 2030 716 C 2030 746, 2030 733, 2030 763 S 2030 780, 2030 810 " stroke="#000000ff"
          stroke-width="1" marker-end="url(#endarrow)"
          fill="transparent"/>
    <text>
        <textPath href="#arrow8" startOffset="50%" text-anchor="middle" class="a14"></textPath>
    </text>
    <path id="arrow9"
          d="M 2179.395795282003 52.723243161214675 C 2149.4499702400235 54.525342646580626, 1211 81, 1211 111 S 1211 147, 1211 177 S 1211 213, 1211 243 S 1211 277, 1211 307 S 1211 341, 1211 371 S 1211 407, 1211 437 S 1211 473, 1211 503 S 1211 537, 1211 567 S 1211 601, 1211 631 S 1211 667, 1211 697 S 1211 733, 1211 763 S 1211 797, 1211 827 S 1211 861, 1211 891 S 1211 908, 1211 938 "
          stroke="#000000ff" stroke-width="1" marker-end="url(#endarrow)"
          fill="transparent"/>
    <text>
        <textPath href="#arrow9" startOffset="50%" text-anchor="middle" class="a14"></textPath>
    </text>
    <path id="arrow10"
          d="M 2331.9547865314557 60.981392920202126 C 2361.1041265539916 68.0747684389941, 2537.5 81, 2537.5 111 S 2537.5 128, 2537.5 158 "
          stroke="#000000ff" stroke-width="1" marker-end="url(#endarrow)"
          fill="transparent"/>
    <text>
        <textPath href="#arrow10" startOffset="50%" text-anchor="middle" class="a14"></textPath>
    </text>
    <path id="arrow11"
          d="M 2357.8211434082195 56.60820392455143 C 2387.6236465892734 60.04488897606036, 2799.7031947333335 107.51466336983458, 2829.5 111 S 3081.198088184186 153.0558830890032, 3110.787878787879 158 "
          stroke="#000000ff" stroke-width="1" marker-end="url(#endarrow)"
          fill="transparent"/>
    <text>
        <textPath href="#arrow11" startOffset="50%" text-anchor="middle" class="a14"></textPath>
    </text>
    <path id="arrow12"
          d="M 3148.6439393939395 196 C 3119.5429155344523 203.28906100465332, 2990.275927383063 236.58404756841725, 2961 243 S 2642.3165596375216 291.15995320708055, 2612.653367638462 295.64270241118874 "
          stroke="#000000ff" stroke-width="1" marker-end="url(#endarrow)"
          fill="transparent"/>
    <text>
        <textPath href="#arrow12" startOffset="50%" text-anchor="middle" class="a14"></textPath>
    </text>
    <path id="arrow13"
          d="M 2175.513816447694 50.37782764454684 C 2145.5312681574833 51.400959124458055, 399 81, 399 111 S 399 147, 399 177 S 399 213, 399 243 S 399 277, 399 307 S 399 341, 399 371 S 399 407, 399 437 S 399 473, 399 503 S 399 537, 399 567 S 399 601, 399 631 S 399 667, 399 697 S 399 733, 399 763 S 399 797, 399 827 S 399 861, 399 891 S 399 927, 399 957 S 399 993, 399 1023 S 399 1057, 399 1087 S 399 1121, 399 1151 S 399 1168, 399 1198 "
          stroke="#000000ff" stroke-width="1" marker-end="url(#endarrow)"
          fill="transparent"/>
    <text>
        <textPath href="#arrow13" startOffset="50%" text-anchor="middle" class="a14"></textPath>
    </text>
    <path id="arrow14"
          d="M 2372.6412681652 51.01601097351202 C 2402.616182090768 52.24260591675776, 3838.5 81, 3838.5 111 S 3838.5 147, 3838.5 177 S 3838.5 213, 3838.5 243 S 3838.5 277, 3838.5 307 S 3838.5 341, 3838.5 371 S 3838.5 407, 3838.5 437 S 3838.5 473, 3838.5 503 S 3838.5 537, 3838.5 567 S 3838.5 601, 3838.5 631 S 3838.5 648, 3838.5 678 "
          stroke="#000000ff" stroke-width="1" marker-end="url(#endarrow)"
          fill="transparent"/>
    <text>
        <textPath href="#arrow14" startOffset="50%" text-anchor="middle" class="a14"></textPath>
    </text>
    <path id="arrow15" d="M 1211 1104 C 1211 1134, 1211 1121, 1211 1151 S 1211 1168, 1211 1198 " stroke="#000000ff"
          stroke-width="1" marker-end="url(#endarrow)"
          fill="transparent"/>
    <text>
        <textPath href="#arrow15" startOffset="50%" text-anchor="middle" class="a14"></textPath>
    </text>
    <path id="arrow16"
          d="M 2593.5644534208527 321.14039416328893 C 2622.653492655762 328.4771370639163, 2762.185046444569 363.5692289418059, 2791.25 371 S 2942.916779130738 410.44830511380775, 2971.9507575757575 418 "
          stroke="#000000ff" stroke-width="1" marker-end="url(#endarrow)"
          fill="transparent"/>
    <text>
        <textPath href="#arrow16" startOffset="50%" text-anchor="middle" class="a14"></textPath>
    </text>
    <path id="arrow17"
          d="M 2481.4355465791473 321.14039416328893 C 2452.346507344238 328.4771370639163, 2312.814953555431 363.5692289418059, 2283.75 371 S 2132.083220869262 410.44830511380775, 2103.0492424242425 418 "
          stroke="#000000ff" stroke-width="1" marker-end="url(#endarrow)"
          fill="transparent"/>
    <text>
        <textPath href="#arrow17" startOffset="50%" text-anchor="middle" class="a14"></textPath>
    </text>
    <path id="arrow18" d="M 2030 456 C 2030 486, 2030 473, 2030 503 S 2030 520, 2030 550 " stroke="#000000ff"
          stroke-width="1" marker-end="url(#endarrow)"
          fill="transparent"/>
    <text>
        <textPath href="#arrow18" startOffset="50%" text-anchor="middle" class="a14"></textPath>
    </text>
    <path id="arrow19" d="M 399 1364 C 399 1394, 399 1381, 399 1411 S 399 1428, 399 1458 " stroke="#000000ff"
          stroke-width="1" marker-end="url(#endarrow)"
          fill="transparent"/>
    <text>
        <textPath href="#arrow19" startOffset="50%" text-anchor="middle" class="a14"></textPath>
    </text>
    <path id="arrow20" d="M 2030 844 C 2030 874, 2030 861, 2030 891 S 2030 908, 2030 938 " stroke="#000000ff"
          stroke-width="1" marker-end="url(#endarrow)"
          fill="transparent"/>
    <text>
        <textPath href="#arrow20" startOffset="50%" text-anchor="middle" class="a14"></textPath>
    </text>
    <path id="arrow21" d="M 2030 584 C 2030 614, 2030 601, 2030 631 S 2030 648, 2030 678 " stroke="#000000ff"
          stroke-width="1" marker-end="url(#endarrow)"
          fill="transparent"/>
    <text>
        <textPath href="#arrow21" startOffset="50%" text-anchor="middle" class="a14"></textPath>
    </text>
</svg>