<?xml version="1.0" encoding="UTF-8" standalone="no"?>
<svg width="3507" height="2302" viewBox="0 0 3507 2302" xmlns="http://www.w3.org/2000/svg">
    <defs>
        <marker id="startarrow" markerWidth="10" markerHeight="7"
                refX="0" refY="3.5" orient="auto">
            <polygon points="10 0, 10 7, 0 3.5"/>
        </marker>
        <marker id="endarrow" markerWidth="10" markerHeight="7"
                refX="10" refY="3.5" orient="auto">
            <polygon points="0 0, 10 3.5, 0 7"/>
        </marker>

    </defs>
    <style>
        .a14 { font-size: 14px; font-family: Times, serif; }
    </style>
    <ellipse cx="1948" cy="47" rx="101" ry="17" fill="#5e6df7ff"
             stroke-width="1" stroke="#000000ff"/>
    <text dominant-baseline="middle" text-anchor="middle"
          x="1948" y="33" class="a14">
        <tspan x="1948" dy="1.0em">Task: _source</tspan>
    </text>
    <ellipse cx="483" cy="827" rx="136" ry="17" fill="#5e6df7ff"
             stroke-width="1" stroke="#000000ff"/>
    <text dominant-baseline="middle" text-anchor="middle"
          x="483" y="813" class="a14">
        <tspan x="483" dy="1.0em">Task: msaa_resolve</tspan>
    </text>
    <ellipse cx="483" cy="567" rx="122" ry="17" fill="#5e6df7ff"
             stroke-width="1" stroke="#000000ff"/>
    <text dominant-baseline="middle" text-anchor="middle"
          x="483" y="553" class="a14">
        <tspan x="483" dy="1.0em">Task: atmosphere</tspan>
    </text>
    <ellipse cx="483" cy="1087" rx="101" ry="17" fill="#5e6df7ff"
             stroke-width="1" stroke="#000000ff"/>
    <text dominant-baseline="middle" text-anchor="middle"
          x="483" y="1073" class="a14">
        <tspan x="483" dy="1.0em">Task: tonemap</tspan>
    </text>
    <ellipse cx="483" cy="1347" rx="129" ry="17" fill="#5e6df7ff"
             stroke-width="1" stroke="#000000ff"/>
    <text dominant-baseline="middle" text-anchor="middle"
          x="483" y="1333" class="a14">
        <tspan x="483" dy="1.0em">Task: egui_render</tspan>
    </text>
    <ellipse cx="483" cy="1607" rx="101" ry="17" fill="#5e6df7ff"
             stroke-width="1" stroke="#000000ff"/>
    <text dominant-baseline="middle" text-anchor="middle"
          x="483" y="1593" class="a14">
        <tspan x="483" dy="1.0em">Task: present</tspan>
    </text>
    <ellipse cx="990.5" cy="307" rx="136" ry="17" fill="#5e6df7ff"
             stroke-width="1" stroke="#000000ff"/>
    <text dominant-baseline="middle" text-anchor="middle"
          x="990.5" y="293" class="a14">
        <tspan x="990.5" dy="1.0em">Task: final_output</tspan>
    </text>
    <rect x="1954" y="678" width="738" height="38" fill="#f75e70ff"
          stroke-width="1" stroke="#000000ff" rx="0"/>
    <text dominant-baseline="middle" text-anchor="middle"
          x="2323" y="676" class="a14">
        <tspan x="2323" dy="1.0em">resolved_output( =&gt; COLOR_ATTACHMENT_WRITE)</tspan>
        <tspan x="2323" dy="1.0em">(COLOR_ATTACHMENT_OUTPUT =&gt; COLOR_ATTACHMENT_OUTPUT)</tspan>
    </text>
    <rect x="2359" y="938" width="738" height="38" fill="#f75e70ff"
          stroke-width="1" stroke="#000000ff" rx="0"/>
    <text dominant-baseline="middle" text-anchor="middle"
          x="2728" y="936" class="a14">
        <tspan x="2728" dy="1.0em">tonemap_output( =&gt; COLOR_ATTACHMENT_WRITE)</tspan>
        <tspan x="2728" dy="1.0em">(COLOR_ATTACHMENT_OUTPUT =&gt; COLOR_ATTACHMENT_OUTPUT)</tspan>
    </text>
    <rect x="2764" y="1198" width="738" height="38" fill="#f75e70ff"
          stroke-width="1" stroke="#000000ff" rx="0"/>
    <text dominant-baseline="middle" text-anchor="middle"
          x="3133" y="1196" class="a14">
        <tspan x="3133" dy="1.0em">swapchain( =&gt; COLOR_ATTACHMENT_WRITE)</tspan>
        <tspan x="3133" dy="1.0em">(COLOR_ATTACHMENT_OUTPUT =&gt; COLOR_ATTACHMENT_OUTPUT)</tspan>
    </text>
    <rect x="621.5" y="158" width="738" height="38" fill="#f75e70ff"
          stroke-width="1" stroke="#000000ff" rx="0"/>
    <text dominant-baseline="middle" text-anchor="middle"
          x="990.5" y="156" class="a14">
        <tspan x="990.5" dy="1.0em">scene_output( =&gt; COLOR_ATTACHMENT_WRITE)</tspan>
        <tspan x="990.5" dy="1.0em">(COLOR_ATTACHMENT_OUTPUT =&gt; COLOR_ATTACHMENT_OUTPUT)</tspan>
    </text>
    <rect x="1533.25" y="158" width="640" height="38" fill="#f75e70ff"
          stroke-width="1" stroke="#000000ff" rx="0"/>
    <text dominant-baseline="middle" text-anchor="middle"
          x="1853.25" y="156" class="a14">
        <tspan x="1853.25" dy="1.0em">depth( =&gt; DEPTH_STENCIL_ATTACHMENT_WRITE)</tspan>
        <tspan x="1853.25" dy="1.0em">(LATE_FRAGMENT_TESTS =&gt; EARLY_FRAGMENT_TESTS)</tspan>
    </text>
    <rect x="93" y="938" width="780" height="38" fill="#f75e70ff"
          stroke-width="1" stroke="#000000ff" rx="0"/>
    <text dominant-baseline="middle" text-anchor="middle"
          x="483" y="936" class="a14">
        <tspan x="483" dy="1.0em">resolved_output+(COLOR_ATTACHMENT_WRITE =&gt; SHADER_READ)</tspan>
        <tspan x="483" dy="1.0em">(COLOR_ATTACHMENT_OUTPUT =&gt; FRAGMENT_SHADER)</tspan>
    </text>
    <rect x="30" y="678" width="906" height="38" fill="#f75e70ff"
          stroke-width="1" stroke="#000000ff" rx="0"/>
    <text dominant-baseline="middle" text-anchor="middle"
          x="483" y="676" class="a14">
        <tspan x="483" dy="1.0em">scene_output++(COLOR_ATTACHMENT_WRITE =&gt; COLOR_ATTACHMENT_WRITE)</tspan>
        <tspan x="483" dy="1.0em">(COLOR_ATTACHMENT_OUTPUT =&gt; COLOR_ATTACHMENT_OUTPUT)</tspan>
    </text>
    <rect x="100" y="1198" width="766" height="38" fill="#f75e70ff"
          stroke-width="1" stroke="#000000ff" rx="0"/>
    <text dominant-baseline="middle" text-anchor="middle"
          x="483" y="1196" class="a14">
        <tspan x="483" dy="1.0em">tonemap_output+(COLOR_ATTACHMENT_WRITE =&gt; SHADER_READ)</tspan>
        <tspan x="483" dy="1.0em">(COLOR_ATTACHMENT_OUTPUT =&gt; FRAGMENT_SHADER)</tspan>
    </text>
    <rect x="177" y="1458" width="612" height="38" fill="#f75e70ff"
          stroke-width="1" stroke="#000000ff" rx="0"/>
    <text dominant-baseline="middle" text-anchor="middle"
          x="483" y="1456" class="a14">
        <tspan x="483" dy="1.0em">swapchain+(COLOR_ATTACHMENT_WRITE =&gt; )</tspan>
        <tspan x="483" dy="1.0em">(COLOR_ATTACHMENT_OUTPUT =&gt; BOTTOM_OF_PIPE)</tspan>
    </text>
    <rect x="37" y="418" width="892" height="38" fill="#f75e70ff"
          stroke-width="1" stroke="#000000ff" rx="0"/>
    <text dominant-baseline="middle" text-anchor="middle"
          x="483" y="416" class="a14">
        <tspan x="483" dy="1.0em">scene_output+(COLOR_ATTACHMENT_WRITE =&gt; COLOR_ATTACHMENT_WRITE)</tspan>
        <tspan x="483" dy="1.0em">(COLOR_ATTACHMENT_OUTPUT =&gt; COLOR_ATTACHMENT_OUTPUT)</tspan>
    </text>
    <rect x="989" y="418" width="1018" height="38" fill="#f75e70ff"
          stroke-width="1" stroke="#000000ff" rx="0"/>
    <text dominant-baseline="middle" text-anchor="middle"
          x="1498" y="416" class="a14">
        <tspan x="1498" dy="1.0em">depth+(DEPTH_STENCIL_ATTACHMENT_WRITE =&gt; DEPTH_STENCIL_ATTACHMENT_WRITE)</tspan>
        <tspan x="1498" dy="1.0em">(LATE_FRAGMENT_TESTS =&gt; EARLY_FRAGMENT_TESTS)</tspan>
    </text>
    <text dominant-baseline="middle" text-anchor="middle"
          x="1293" y="749" class="a14">
        <tspan x="1293" dy="1.0em">resolved_output</tspan>
    </text>
    <text dominant-baseline="middle" text-anchor="middle"
          x="380" y="749" class="a14">
        <tspan x="380" dy="1.0em">scene_output++</tspan>
    </text>
    <text dominant-baseline="middle" text-anchor="middle"
          x="1502.5" y="1009" class="a14">
        <tspan x="1502.5" dy="1.0em">tonemap_output</tspan>
    </text>
    <text dominant-baseline="middle" text-anchor="middle"
          x="366" y="1009" class="a14">
        <tspan x="366" dy="1.0em">resolved_output+</tspan>
    </text>
    <text dominant-baseline="middle" text-anchor="middle"
          x="1740" y="1269" class="a14">
        <tspan x="1740" dy="1.0em">swapchain</tspan>
    </text>
    <text dominant-baseline="middle" text-anchor="middle"
          x="373" y="1269" class="a14">
        <tspan x="373" dy="1.0em">tonemap_output+</tspan>
    </text>
    <text dominant-baseline="middle" text-anchor="middle"
          x="408" y="1529" class="a14">
        <tspan x="408" dy="1.0em">swapchain+</tspan>
    </text>
    <text dominant-baseline="middle" text-anchor="middle"
          x="901.5" y="229" class="a14">
        <tspan x="901.5" dy="1.0em">scene_output</tspan>
    </text>
    <text dominant-baseline="middle" text-anchor="middle"
          x="387" y="489" class="a14">
        <tspan x="387" dy="1.0em">scene_output+</tspan>
    </text>
    <text dominant-baseline="middle" text-anchor="middle"
          x="2213" y="617" class="a14">
        <tspan x="2213" dy="1.0em">resolved_output</tspan>
    </text>
    <text dominant-baseline="middle" text-anchor="middle"
          x="2625" y="877" class="a14">
        <tspan x="2625" dy="1.0em">tonemap_output</tspan>
    </text>
    <text dominant-baseline="middle" text-anchor="middle"
          x="3065" y="1137" class="a14">
        <tspan x="3065" dy="1.0em">swapchain</tspan>
    </text>
    <text dominant-baseline="middle" text-anchor="middle"
          x="1380.25" y="97" class="a14">
        <tspan x="1380.25" dy="1.0em">scene_output</tspan>
    </text>
    <text dominant-baseline="middle" text-anchor="middle"
          x="1860.625" y="97" class="a14">
        <tspan x="1860.625" dy="1.0em">depth</tspan>
    </text>
    <text dominant-baseline="middle" text-anchor="middle"
          x="1381.875" y="229" class="a14">
        <tspan x="1381.875" dy="1.0em">depth</tspan>
    </text>
    <text dominant-baseline="middle" text-anchor="middle"
          x="366" y="877" class="a14">
        <tspan x="366" dy="1.0em">resolved_output+</tspan>
    </text>
    <text dominant-baseline="middle" text-anchor="middle"
          x="380" y="617" class="a14">
        <tspan x="380" dy="1.0em">scene_output++</tspan>
    </text>
    <text dominant-baseline="middle" text-anchor="middle"
          x="373" y="1137" class="a14">
        <tspan x="373" dy="1.0em">tonemap_output+</tspan>
    </text>
    <text dominant-baseline="middle" text-anchor="middle"
          x="408" y="1397" class="a14">
        <tspan x="408" dy="1.0em">swapchain+</tspan>
    </text>
    <text dominant-baseline="middle" text-anchor="middle"
          x="640.75" y="357" class="a14">
        <tspan x="640.75" dy="1.0em">scene_output+</tspan>
    </text>
    <text dominant-baseline="middle" text-anchor="middle"
          x="1197.25" y="357" class="a14">
        <tspan x="1197.25" dy="1.0em">depth+</tspan>
    </text>
    <text dominant-baseline="middle" text-anchor="middle"
          x="943.5" y="489" class="a14">
        <tspan x="943.5" dy="1.0em">depth+</tspan>
    </text>
    <path id="arrow0"
          d="M 1954 713.556084296397 C 1924.120060622008 716.2373568986369, 1432.8978369136937 760.5434522462115, 1403 763 S 631.7642863067368 816.6511800830095, 601.8366136929105 818.7331051344062 "
          stroke="#000000ff" stroke-width="1" marker-end="url(#endarrow)"
          fill="transparent"/>
    <text>
        <textPath href="#arrow0" startOffset="50%" text-anchor="middle" class="a14"></textPath>
    </text>
    <path id="arrow1" d="M 483 716 C 483 746, 483 733, 483 763 S 483 780, 483 810 " stroke="#000000ff" stroke-width="1"
          marker-end="url(#endarrow)"
          fill="transparent"/>
    <text>
        <textPath href="#arrow1" startOffset="50%" text-anchor="middle" class="a14"></textPath>
    </text>
    <path id="arrow2"
          d="M 2359 969.9818763326226 C 2329.0739885467187 972.0875445159026, 1635.4361966716085 1021.0542599834392, 1605.5 1023 S 608.612086846565 1079.8381527321335, 578.6607299456091 1081.5458470231456 "
          stroke="#000000ff" stroke-width="1" marker-end="url(#endarrow)"
          fill="transparent"/>
    <text>
        <textPath href="#arrow2" startOffset="50%" text-anchor="middle" class="a14"></textPath>
    </text>
    <path id="arrow3" d="M 483 976 C 483 1006, 483 993, 483 1023 S 483 1040, 483 1070 " stroke="#000000ff"
          stroke-width="1" marker-end="url(#endarrow)"
          fill="transparent"/>
    <text>
        <textPath href="#arrow3" startOffset="50%" text-anchor="middle" class="a14"></textPath>
    </text>
    <path id="arrow4"
          d="M 2764 1227.6768960982026 C 2734.050107118352 1229.4100770979298, 1837.9562536201215 1281.3866420989632, 1808 1283 S 634.0856124110935 1339.702279853351, 604.120547377629 1341.149649032326 "
          stroke="#000000ff" stroke-width="1" marker-end="url(#endarrow)"
          fill="transparent"/>
    <text>
        <textPath href="#arrow4" startOffset="50%" text-anchor="middle" class="a14"></textPath>
    </text>
    <path id="arrow5" d="M 483 1236 C 483 1266, 483 1253, 483 1283 S 483 1300, 483 1330 " stroke="#000000ff"
          stroke-width="1" marker-end="url(#endarrow)"
          fill="transparent"/>
    <text>
        <textPath href="#arrow5" startOffset="50%" text-anchor="middle" class="a14"></textPath>
    </text>
    <path id="arrow6" d="M 483 1496 C 483 1526, 483 1513, 483 1543 S 483 1560, 483 1590 " stroke="#000000ff"
          stroke-width="1" marker-end="url(#endarrow)"
          fill="transparent"/>
    <text>
        <textPath href="#arrow6" startOffset="50%" text-anchor="middle" class="a14"></textPath>
    </text>
    <path id="arrow7" d="M 990.5 196 C 990.5 226, 990.5 213, 990.5 243 S 990.5 260, 990.5 290 " stroke="#000000ff"
          stroke-width="1" marker-end="url(#endarrow)"
          fill="transparent"/>
    <text>
        <textPath href="#arrow7" startOffset="50%" text-anchor="middle" class="a14"></textPath>
    </text>
    <path id="arrow8" d="M 483 456 C 483 486, 483 473, 483 503 S 483 520, 483 550 " stroke="#000000ff" stroke-width="1"
          marker-end="url(#endarrow)"
          fill="transparent"/>
    <text>
        <textPath href="#arrow8" startOffset="50%" text-anchor="middle" class="a14"></textPath>
    </text>
    <path id="arrow9"
          d="M 2018.9210125737652 59.10385281258926 C 2048.4934243657735 64.15087775842534, 2323 81, 2323 111 S 2323 147, 2323 177 S 2323 213, 2323 243 S 2323 277, 2323 307 S 2323 341, 2323 371 S 2323 407, 2323 437 S 2323 473, 2323 503 S 2323 537, 2323 567 S 2323 601, 2323 631 S 2323 648, 2323 678 "
          stroke="#000000ff" stroke-width="1" marker-end="url(#endarrow)"
          fill="transparent"/>
    <text>
        <textPath href="#arrow9" startOffset="50%" text-anchor="middle" class="a14"></textPath>
    </text>
    <path id="arrow10"
          d="M 2038.7871910541048 54.44920541982398 C 2068.68671192735 56.90249944019281, 2728 81, 2728 111 S 2728 147, 2728 177 S 2728 213, 2728 243 S 2728 277, 2728 307 S 2728 341, 2728 371 S 2728 407, 2728 437 S 2728 473, 2728 503 S 2728 537, 2728 567 S 2728 601, 2728 631 S 2728 667, 2728 697 S 2728 733, 2728 763 S 2728 797, 2728 827 S 2728 861, 2728 891 S 2728 908, 2728 938 "
          stroke="#000000ff" stroke-width="1" marker-end="url(#endarrow)"
          fill="transparent"/>
    <text>
        <textPath href="#arrow10" startOffset="50%" text-anchor="middle" class="a14"></textPath>
    </text>
    <path id="arrow11"
          d="M 2044.1704194665904 52.194014215917115 C 2074.1267612817487 53.81190947006912, 3133 81, 3133 111 S 3133 147, 3133 177 S 3133 213, 3133 243 S 3133 277, 3133 307 S 3133 341, 3133 371 S 3133 407, 3133 437 S 3133 473, 3133 503 S 3133 537, 3133 567 S 3133 601, 3133 631 S 3133 667, 3133 697 S 3133 733, 3133 763 S 3133 797, 3133 827 S 3133 861, 3133 891 S 3133 927, 3133 957 S 3133 993, 3133 1023 S 3133 1057, 3133 1087 S 3133 1121, 3133 1151 S 3133 1168, 3133 1198 "
          stroke="#000000ff" stroke-width="1" marker-end="url(#endarrow)"
          fill="transparent"/>
    <text>
        <textPath href="#arrow11" startOffset="50%" text-anchor="middle" class="a14"></textPath>
    </text>
    <path id="arrow12"
          d="M 1868.9099455585038 57.572874118549905 C 1839.174466405402 61.54795644919955, 1498.9779489477858 106.96945457336088, 1469.25 111 S 1288.981013649454 151.43416516273925, 1259.7083333333333 158 "
          stroke="#000000ff" stroke-width="1" marker-end="url(#endarrow)"
          fill="transparent"/>
    <text>
        <textPath href="#arrow12" startOffset="50%" text-anchor="middle" class="a14"></textPath>
    </text>
    <path id="arrow13"
          d="M 1935.5125675682045 63.869565712610324 C 1917.6636259046613 87.98212014990355, 1918.3250916295972 86.77894001672158, 1900.625 111 S 1884.382118046488 133.62860599328343, 1866.8882575757575 158 "
          stroke="#000000ff" stroke-width="1" marker-end="url(#endarrow)"
          fill="transparent"/>
    <text>
        <textPath href="#arrow13" startOffset="50%" text-anchor="middle" class="a14"></textPath>
    </text>
    <path id="arrow14"
          d="M 1615.126893939394 196 C 1585.9766158404182 203.08951950081033, 1451.1896845955223 236.75203192401224, 1421.875 243 S 1107.8034422423113 289.5965336342905, 1078.128262409743 293.9992262086965 "
          stroke="#000000ff" stroke-width="1" marker-end="url(#endarrow)"
          fill="transparent"/>
    <text>
        <textPath href="#arrow14" startOffset="50%" text-anchor="middle" class="a14"></textPath>
    </text>
    <path id="arrow15" d="M 483 844 C 483 874, 483 861, 483 891 S 483 908, 483 938 " stroke="#000000ff" stroke-width="1"
          marker-end="url(#endarrow)"
          fill="transparent"/>
    <text>
        <textPath href="#arrow15" startOffset="50%" text-anchor="middle" class="a14"></textPath>
    </text>
    <path id="arrow16" d="M 483 584 C 483 614, 483 601, 483 631 S 483 648, 483 678 " stroke="#000000ff" stroke-width="1"
          marker-end="url(#endarrow)"
          fill="transparent"/>
    <text>
        <textPath href="#arrow16" startOffset="50%" text-anchor="middle" class="a14"></textPath>
    </text>
    <path id="arrow17" d="M 483 1104 C 483 1134, 483 1121, 483 1151 S 483 1168, 483 1198 " stroke="#000000ff"
          stroke-width="1" marker-end="url(#endarrow)"
          fill="transparent"/>
    <text>
        <textPath href="#arrow17" startOffset="50%" text-anchor="middle" class="a14"></textPath>
    </text>
    <path id="arrow18" d="M 483 1364 C 483 1394, 483 1381, 483 1411 S 483 1428, 483 1458 " stroke="#000000ff"
          stroke-width="1" marker-end="url(#endarrow)"
          fill="transparent"/>
    <text>
        <textPath href="#arrow18" startOffset="50%" text-anchor="middle" class="a14"></textPath>
    </text>
    <path id="arrow19"
          d="M 930.1077265885539 322.2319428505716 C 901.0186873536445 329.568685751199, 765.8152530594821 363.5703981765834, 736.75 371 S 585.0832208692619 410.44830511380775, 556.0492424242424 418 "
          stroke="#000000ff" stroke-width="1" marker-end="url(#endarrow)"
          fill="transparent"/>
    <text>
        <textPath href="#arrow19" startOffset="50%" text-anchor="middle" class="a14"></textPath>
    </text>
    <path id="arrow20"
          d="M 1050.8922734114462 322.2319428505716 C 1079.9813126463555 329.568685751199, 1215.184746940518 363.5703981765834, 1244.25 371 S 1395.916779130738 410.44830511380775, 1424.9507575757575 418 "
          stroke="#000000ff" stroke-width="1" marker-end="url(#endarrow)"
          fill="transparent"/>
    <text>
        <textPath href="#arrow20" startOffset="50%" text-anchor="middle" class="a14"></textPath>
    </text>
    <path id="arrow21"
          d="M 1351.9015151515152 456 C 1322.1520340138657 459.8688980395761, 1020.2556291650404 499.17910404995797, 990.5 503 S 603.220320780986 551.8392107783584, 573.456062502027 555.5927330046704 "
          stroke="#000000ff" stroke-width="1" marker-end="url(#endarrow)"
          fill="transparent"/>
    <text>
        <textPath href="#arrow21" startOffset="50%" text-anchor="middle" class="a14"></textPath>
    </text>
</svg>